<mxfile host="app.diagrams.net" agent="Mozilla/5.0 (Windows NT 10.0; Win64; x64) AppleWebKit/537.36 (KHTML, like Gecko) Chrome/133.0.0.0 Safari/537.36" version="24.8.6">
  <diagram id="kgpKYQtTHZ0yAKxKKP6v" name="Page-1">
    <mxGraphModel dx="1221" dy="759" grid="1" gridSize="10" guides="1" tooltips="1" connect="1" arrows="1" fold="1" page="1" pageScale="1" pageWidth="850" pageHeight="1100" math="0" shadow="0">
      <root>
        <mxCell id="0" />
        <mxCell id="1" parent="0" />
        <mxCell id="T7KqqAWFQcqHIaZQAKyY-26" style="edgeStyle=orthogonalEdgeStyle;rounded=0;orthogonalLoop=1;jettySize=auto;html=1;" edge="1" parent="1" source="T7KqqAWFQcqHIaZQAKyY-3" target="T7KqqAWFQcqHIaZQAKyY-27">
          <mxGeometry relative="1" as="geometry">
            <mxPoint x="485" y="480" as="targetPoint" />
          </mxGeometry>
        </mxCell>
        <mxCell id="T7KqqAWFQcqHIaZQAKyY-37" value="" style="edgeStyle=orthogonalEdgeStyle;rounded=0;orthogonalLoop=1;jettySize=auto;html=1;" edge="1" parent="1" source="T7KqqAWFQcqHIaZQAKyY-3" target="T7KqqAWFQcqHIaZQAKyY-36">
          <mxGeometry relative="1" as="geometry" />
        </mxCell>
        <mxCell id="T7KqqAWFQcqHIaZQAKyY-39" style="edgeStyle=orthogonalEdgeStyle;rounded=0;orthogonalLoop=1;jettySize=auto;html=1;" edge="1" parent="1" source="T7KqqAWFQcqHIaZQAKyY-3" target="T7KqqAWFQcqHIaZQAKyY-40">
          <mxGeometry relative="1" as="geometry">
            <mxPoint x="540" y="400" as="targetPoint" />
          </mxGeometry>
        </mxCell>
        <mxCell id="T7KqqAWFQcqHIaZQAKyY-3" value="&lt;font style=&quot;font-size: 24px;&quot;&gt;ROSA&lt;/font&gt;" style="ellipse;whiteSpace=wrap;html=1;" vertex="1" parent="1">
          <mxGeometry x="430" y="220" width="160" height="140" as="geometry" />
        </mxCell>
        <mxCell id="T7KqqAWFQcqHIaZQAKyY-4" value="物品信息" style="rounded=1;whiteSpace=wrap;html=1;" vertex="1" parent="1">
          <mxGeometry x="180" y="190" width="130" height="60" as="geometry" />
        </mxCell>
        <mxCell id="T7KqqAWFQcqHIaZQAKyY-8" style="edgeStyle=orthogonalEdgeStyle;rounded=0;orthogonalLoop=1;jettySize=auto;html=1;entryX=0;entryY=0.5;entryDx=0;entryDy=0;" edge="1" parent="1" source="T7KqqAWFQcqHIaZQAKyY-5" target="T7KqqAWFQcqHIaZQAKyY-6">
          <mxGeometry relative="1" as="geometry" />
        </mxCell>
        <mxCell id="T7KqqAWFQcqHIaZQAKyY-9" value="具有标签物品" style="edgeLabel;html=1;align=center;verticalAlign=middle;resizable=0;points=[];" vertex="1" connectable="0" parent="T7KqqAWFQcqHIaZQAKyY-8">
          <mxGeometry x="0.103" relative="1" as="geometry">
            <mxPoint as="offset" />
          </mxGeometry>
        </mxCell>
        <mxCell id="T7KqqAWFQcqHIaZQAKyY-10" style="edgeStyle=orthogonalEdgeStyle;rounded=0;orthogonalLoop=1;jettySize=auto;html=1;entryX=0;entryY=0.5;entryDx=0;entryDy=0;" edge="1" parent="1" source="T7KqqAWFQcqHIaZQAKyY-5" target="T7KqqAWFQcqHIaZQAKyY-4">
          <mxGeometry relative="1" as="geometry">
            <mxPoint x="130" y="210" as="targetPoint" />
          </mxGeometry>
        </mxCell>
        <mxCell id="T7KqqAWFQcqHIaZQAKyY-5" value="Yolo11&lt;br&gt;物品识别与定位" style="rounded=0;whiteSpace=wrap;html=1;" vertex="1" parent="1">
          <mxGeometry x="70" y="50" width="120" height="60" as="geometry" />
        </mxCell>
        <mxCell id="T7KqqAWFQcqHIaZQAKyY-11" style="edgeStyle=orthogonalEdgeStyle;rounded=0;orthogonalLoop=1;jettySize=auto;html=1;entryX=0.5;entryY=0;entryDx=0;entryDy=0;" edge="1" parent="1" source="T7KqqAWFQcqHIaZQAKyY-6" target="T7KqqAWFQcqHIaZQAKyY-4">
          <mxGeometry relative="1" as="geometry" />
        </mxCell>
        <mxCell id="T7KqqAWFQcqHIaZQAKyY-6" value="二维码 标签识别" style="rounded=0;whiteSpace=wrap;html=1;" vertex="1" parent="1">
          <mxGeometry x="270" y="110" width="120" height="40" as="geometry" />
        </mxCell>
        <mxCell id="T7KqqAWFQcqHIaZQAKyY-12" value="&lt;h1 style=&quot;margin-top: 0px;&quot;&gt;&lt;br&gt;&lt;/h1&gt;&lt;div&gt;· 物品名称&lt;/div&gt;&lt;div&gt;· 物品定位数据&lt;/div&gt;&lt;div&gt;· *物品抓取数据&lt;/div&gt;&lt;div&gt;· *物品使用方法&lt;/div&gt;" style="text;html=1;whiteSpace=wrap;overflow=hidden;rounded=0;" vertex="1" parent="1">
          <mxGeometry x="40" y="160" width="150" height="120" as="geometry" />
        </mxCell>
        <mxCell id="T7KqqAWFQcqHIaZQAKyY-13" style="edgeStyle=orthogonalEdgeStyle;rounded=0;orthogonalLoop=1;jettySize=auto;html=1;entryX=0.208;entryY=0.125;entryDx=0;entryDy=0;entryPerimeter=0;" edge="1" parent="1" source="T7KqqAWFQcqHIaZQAKyY-4" target="T7KqqAWFQcqHIaZQAKyY-3">
          <mxGeometry relative="1" as="geometry" />
        </mxCell>
        <mxCell id="T7KqqAWFQcqHIaZQAKyY-21" value="物品信息调用函数" style="edgeLabel;html=1;align=center;verticalAlign=middle;resizable=0;points=[];" vertex="1" connectable="0" parent="T7KqqAWFQcqHIaZQAKyY-13">
          <mxGeometry x="0.1277" relative="1" as="geometry">
            <mxPoint as="offset" />
          </mxGeometry>
        </mxCell>
        <mxCell id="T7KqqAWFQcqHIaZQAKyY-24" style="edgeStyle=orthogonalEdgeStyle;rounded=0;orthogonalLoop=1;jettySize=auto;html=1;entryX=0;entryY=0.5;entryDx=0;entryDy=0;" edge="1" parent="1" source="T7KqqAWFQcqHIaZQAKyY-16" target="T7KqqAWFQcqHIaZQAKyY-3">
          <mxGeometry relative="1" as="geometry" />
        </mxCell>
        <mxCell id="T7KqqAWFQcqHIaZQAKyY-16" value="机械臂操作函数" style="rounded=0;whiteSpace=wrap;html=1;" vertex="1" parent="1">
          <mxGeometry x="140" y="340" width="170" height="40" as="geometry" />
        </mxCell>
        <mxCell id="T7KqqAWFQcqHIaZQAKyY-25" style="edgeStyle=orthogonalEdgeStyle;rounded=0;orthogonalLoop=1;jettySize=auto;html=1;entryX=0;entryY=1;entryDx=0;entryDy=0;" edge="1" parent="1">
          <mxGeometry relative="1" as="geometry">
            <mxPoint x="300" y="405.86" as="sourcePoint" />
            <mxPoint x="432.57359312880726" y="314.1442712474617" as="targetPoint" />
            <Array as="points">
              <mxPoint x="410" y="405.86" />
              <mxPoint x="410" y="313.86" />
            </Array>
          </mxGeometry>
        </mxCell>
        <mxCell id="T7KqqAWFQcqHIaZQAKyY-18" value="机械臂信息" style="rounded=0;whiteSpace=wrap;html=1;" vertex="1" parent="1">
          <mxGeometry x="140" y="390" width="170" height="40" as="geometry" />
        </mxCell>
        <mxCell id="T7KqqAWFQcqHIaZQAKyY-27" value="&lt;font style=&quot;font-size: 15px;&quot;&gt;ROS Action&lt;/font&gt;" style="shape=parallelogram;perimeter=parallelogramPerimeter;whiteSpace=wrap;html=1;fixedSize=1;" vertex="1" parent="1">
          <mxGeometry x="410" y="500" width="165" height="70" as="geometry" />
        </mxCell>
        <mxCell id="T7KqqAWFQcqHIaZQAKyY-33" style="edgeStyle=orthogonalEdgeStyle;rounded=0;orthogonalLoop=1;jettySize=auto;html=1;entryX=0;entryY=1;entryDx=0;entryDy=0;" edge="1" parent="1" source="T7KqqAWFQcqHIaZQAKyY-32" target="T7KqqAWFQcqHIaZQAKyY-3">
          <mxGeometry relative="1" as="geometry" />
        </mxCell>
        <mxCell id="T7KqqAWFQcqHIaZQAKyY-32" value="ROSA Agent" style="shape=hexagon;perimeter=hexagonPerimeter2;whiteSpace=wrap;html=1;fixedSize=1;" vertex="1" parent="1">
          <mxGeometry x="220" y="450" width="170" height="70" as="geometry" />
        </mxCell>
        <mxCell id="T7KqqAWFQcqHIaZQAKyY-35" style="edgeStyle=orthogonalEdgeStyle;rounded=0;orthogonalLoop=1;jettySize=auto;html=1;" edge="1" parent="1" source="T7KqqAWFQcqHIaZQAKyY-34" target="T7KqqAWFQcqHIaZQAKyY-3">
          <mxGeometry relative="1" as="geometry" />
        </mxCell>
        <mxCell id="T7KqqAWFQcqHIaZQAKyY-34" value="&lt;font style=&quot;font-size: 14px;&quot;&gt;human imput&lt;/font&gt;" style="rounded=0;whiteSpace=wrap;html=1;" vertex="1" parent="1">
          <mxGeometry x="510" y="30" width="120" height="60" as="geometry" />
        </mxCell>
        <mxCell id="T7KqqAWFQcqHIaZQAKyY-46" style="edgeStyle=orthogonalEdgeStyle;rounded=0;orthogonalLoop=1;jettySize=auto;html=1;" edge="1" parent="1" source="T7KqqAWFQcqHIaZQAKyY-36">
          <mxGeometry relative="1" as="geometry">
            <mxPoint x="590" y="290" as="targetPoint" />
          </mxGeometry>
        </mxCell>
        <mxCell id="T7KqqAWFQcqHIaZQAKyY-36" value="&lt;font style=&quot;font-size: 14px;&quot;&gt;LLM&lt;/font&gt;&lt;div style=&quot;font-size: 14px;&quot;&gt;&lt;font style=&quot;font-size: 14px;&quot;&gt;+&lt;/font&gt;&lt;div style=&quot;&quot;&gt;&lt;span style=&quot;background-color: initial;&quot;&gt;&lt;font style=&quot;font-size: 14px;&quot;&gt;ChemCrow&lt;/font&gt;&lt;/span&gt;&lt;/div&gt;&lt;/div&gt;" style="whiteSpace=wrap;html=1;" vertex="1" parent="1">
          <mxGeometry x="680" y="170" width="102.5" height="240" as="geometry" />
        </mxCell>
        <mxCell id="T7KqqAWFQcqHIaZQAKyY-40" value="&lt;font style=&quot;font-size: 14px;&quot;&gt;llm output&lt;/font&gt;" style="rounded=0;whiteSpace=wrap;html=1;" vertex="1" parent="1">
          <mxGeometry x="590" y="460" width="120" height="60" as="geometry" />
        </mxCell>
        <mxCell id="T7KqqAWFQcqHIaZQAKyY-43" style="edgeStyle=orthogonalEdgeStyle;rounded=0;orthogonalLoop=1;jettySize=auto;html=1;" edge="1" parent="1" source="T7KqqAWFQcqHIaZQAKyY-41">
          <mxGeometry relative="1" as="geometry">
            <mxPoint x="430" y="290" as="targetPoint" />
          </mxGeometry>
        </mxCell>
        <mxCell id="T7KqqAWFQcqHIaZQAKyY-41" value="ROS2 tools" style="rounded=0;whiteSpace=wrap;html=1;" vertex="1" parent="1">
          <mxGeometry x="140" y="290" width="170" height="30" as="geometry" />
        </mxCell>
        <mxCell id="T7KqqAWFQcqHIaZQAKyY-44" style="edgeStyle=orthogonalEdgeStyle;rounded=0;orthogonalLoop=1;jettySize=auto;html=1;exitX=0.5;exitY=1;exitDx=0;exitDy=0;" edge="1" parent="1" source="T7KqqAWFQcqHIaZQAKyY-41" target="T7KqqAWFQcqHIaZQAKyY-41">
          <mxGeometry relative="1" as="geometry" />
        </mxCell>
      </root>
    </mxGraphModel>
  </diagram>
</mxfile>
